<svg xmlns="http://www.w3.org/2000/svg" width="100" height="100" viewBox="0 0 100 100" class="open-it"><path d="M50-.002C22.43-.002 0 22.428 0 50c0 27.57 22.43 50.002 50 50.002S100 77.57 100 50C100 22.43 77.57-.002 50-.002zm0 94.235C25.61 94.233 5.77 74.39 5.77 50 5.77 25.61 25.61 5.768 50 5.768 74.39 5.768 94.23 25.61 94.23 50S74.39 94.233 50 94.233z"/><path d="M44.783 24.502c-1.127-1.127-2.952-1.127-4.08 0-1.126 1.126-1.126 2.952 0 4.08L62.124 50l-21.42 21.418c-1.126 1.127-1.126 2.952 0 4.08.564.562 1.303.844 2.04.844.74 0 1.477-.28 2.04-.845L68.24 52.04c1.127-1.128 1.127-2.953 0-4.08L44.783 24.502z"/></svg>