<svg xmlns="http://www.w3.org/2000/svg" width="100" height="100" viewBox="0 0 100 100" class="close-it"><path d="M-343.55-210.833c-9.557 0-17.333 7.775-17.333 17.333s7.776 17.333 17.334 17.333 17.335-7.775 17.335-17.333-7.776-17.333-17.334-17.333zm0 32.666c-8.454 0-15.333-6.878-15.333-15.333s6.88-15.333 15.334-15.333 15.335 6.878 15.335 15.333-6.88 15.333-15.334 15.333z"/><path d="M-345.357-202.34c-.287-.286-.717-.372-1.09-.216-.374.155-.617.52-.617.924v16.264c0 .404.244.77.617.924.124.05.254.076.383.076.26 0 .516-.102.707-.293l8.13-8.133c.392-.39.392-1.023 0-1.414l-8.13-8.132zm.293 14.557v-11.435l5.717 5.717-5.717 5.717zM-471.277-210.833c-9.558 0-17.334 7.775-17.334 17.333s7.775 17.333 17.333 17.333 17.334-7.775 17.334-17.333-7.776-17.333-17.334-17.333zm0 32.666c-8.455 0-15.334-6.878-15.334-15.333s6.878-15.333 15.333-15.333 15.334 6.878 15.334 15.333-6.88 15.333-15.334 15.333z"/><path d="M-469.213-200.57c-.286-.288-.716-.374-1.09-.218-.374.155-.617.52-.617.924v5.67c-.003-.004-.004-.01-.008-.013l-6.363-6.364c-.287-.288-.717-.374-1.09-.218-.375.155-.618.52-.618.924v12.73c0 .403.244.768.617.923.123.05.253.075.382.075.26 0 .516-.102.707-.293l6.362-6.364c.003-.003.004-.008.008-.012v5.67c0 .403.244.768.617.923.124.05.254.075.383.075.26 0 .516-.102.707-.293l6.363-6.364c.39-.39.39-1.023 0-1.414l-6.363-6.365zm-7.785 11.02v-7.9l3.95 3.95-3.95 3.95zm8.078 0v-7.9l3.95 3.95-3.95 3.95zM-382.143-210.833c-9.558 0-17.334 7.775-17.334 17.333s7.776 17.333 17.334 17.333c9.557 0 17.332-7.775 17.332-17.333s-7.775-17.333-17.333-17.333zm0 32.666c-8.455 0-15.334-6.878-15.334-15.333s6.88-15.333 15.334-15.333 15.332 6.878 15.332 15.333-6.878 15.333-15.333 15.333z"/><path d="M-385.21-200.132c-.553 0-1 .448-1 1v11.264c0 .552.447 1 1 1s1-.448 1-1v-11.264c0-.552-.45-1-1-1zM-379.076-200.132c-.552 0-1 .448-1 1v11.264c0 .552.448 1 1 1s1-.448 1-1v-11.264c0-.552-.448-1-1-1zM-514.662-210.833c-9.558 0-17.334 7.775-17.334 17.333s7.776 17.333 17.334 17.333 17.334-7.775 17.334-17.333-7.776-17.333-17.334-17.333zm0 32.666c-8.455 0-15.334-6.878-15.334-15.333s6.88-15.333 15.334-15.333 15.334 6.878 15.334 15.333-6.88 15.333-15.334 15.333z"/><path d="M-509.03-194.5h-4.632v-4.632c0-.552-.448-1-1-1s-1 .448-1 1v4.632h-4.632c-.552 0-1 .448-1 1s.448 1 1 1h4.632v4.632c0 .552.448 1 1 1s1-.448 1-1v-4.632h4.632c.552 0 1-.448 1-1s-.448-1-1-1zM-562.133-210.833c-9.558 0-17.334 7.775-17.334 17.333s7.776 17.333 17.334 17.333 17.333-7.775 17.333-17.333-7.775-17.333-17.333-17.333zm0 32.666c-8.455 0-15.334-6.878-15.334-15.333s6.88-15.333 15.334-15.333c8.455 0 15.333 6.878 15.333 15.333s-6.878 15.333-15.333 15.333z"/><path d="M-556.5-194.5h-11.265c-.552 0-1 .448-1 1s.448 1 1 1h11.264c.55 0 1-.448 1-1s-.45-1-1-1zM-595.24-205.71c-.013-.014-.017-.033-.03-.046s-.033-.018-.048-.03c-3.135-3.116-7.45-5.046-12.21-5.046-9.557 0-17.333 7.775-17.333 17.333 0 4.763 1.93 9.08 5.05 12.217.01.012.015.028.027.04s.028.016.04.027c3.136 3.12 7.454 5.05 12.216 5.05 9.558 0 17.333-7.775 17.333-17.333 0-4.76-1.93-9.075-5.046-12.21zm-12.287-3.123c3.868 0 7.396 1.45 10.096 3.822l-21.608 21.606c-2.372-2.7-3.823-6.228-3.823-10.096 0-8.455 6.878-15.333 15.333-15.333zm0 30.666c-3.868 0-7.396-1.45-10.097-3.823l21.607-21.607c2.372 2.7 3.823 6.23 3.823 10.097 0 8.455-6.878 15.333-15.333 15.333zM-504.944-262.855c-9.558 0-17.333 7.776-17.333 17.333s7.775 17.334 17.333 17.334 17.333-7.776 17.333-17.334-7.777-17.333-17.334-17.333zm0 32.667c-8.455 0-15.333-6.88-15.333-15.334s6.878-15.333 15.333-15.333 15.333 6.878 15.333 15.333-6.88 15.334-15.334 15.334z"/><path d="M-506.753-254.36c-.39-.39-1.023-.39-1.414 0s-.39 1.023 0 1.414l7.425 7.425-7.425 7.424c-.39.39-.39 1.023 0 1.414.195.195.45.293.707.293s.512-.097.707-.292l8.132-8.132c.39-.39.39-1.023 0-1.414l-8.133-8.132zM49.953 100c27.566 0 49.994-22.426 49.994-49.996C99.947 22.436 77.52.007 49.953.007 22.386.007-.042 22.437-.042 50.004-.042 77.574 22.386 100 49.953 100zm0-94.224c24.388 0 44.227 19.84 44.227 44.23 0 24.388-19.84 44.227-44.227 44.227-24.387 0-44.227-19.84-44.227-44.228 0-24.39 19.84-44.23 44.227-44.23z"/><path d="M55.17 75.502c1.125 1.125 2.953 1.125 4.077 0 1.128-1.128 1.128-2.953 0-4.08L37.833 50.003l21.415-21.416c1.128-1.126 1.128-2.95 0-4.08-.562-.562-1.3-.844-2.04-.844-.734 0-1.475.282-2.038.845L31.715 47.963c-1.127 1.126-1.127 2.953 0 4.08L55.17 75.5z"/><g><path d="M-482.422-245.52c0 9.557 7.775 17.333 17.334 17.333 9.557 0 17.333-7.776 17.333-17.334s-7.776-17.334-17.333-17.334c-9.558 0-17.334 7.775-17.334 17.333zm32.667 0c0 8.454-6.878 15.333-15.333 15.333s-15.334-6.88-15.334-15.334 6.88-15.334 15.334-15.334 15.333 6.877 15.333 15.333z"/><path d="M-473.928-243.713c-.39.39-.39 1.023 0 1.414s1.023.392 1.414 0l7.426-7.424 7.424 7.425c.39.392 1.023.392 1.414 0 .195-.194.293-.45.293-.706s-.098-.512-.293-.707l-8.13-8.132c-.392-.39-1.024-.39-1.415 0l-8.133 8.132z"/></g><g><path d="M-407.898-245.52c0-9.56-7.777-17.334-17.334-17.334-9.56 0-17.334 7.776-17.334 17.333s7.775 17.333 17.334 17.333c9.556 0 17.334-7.777 17.334-17.334zm-32.668 0c0-8.456 6.88-15.334 15.334-15.334s15.334 6.878 15.334 15.333-6.88 15.333-15.334 15.333-15.334-6.88-15.334-15.334z"/><path d="M-416.395-247.33c.39-.39.39-1.023 0-1.414s-1.023-.39-1.414 0l-7.423 7.425-7.426-7.424c-.39-.39-1.022-.39-1.413 0-.195.195-.293.45-.293.707s.098.512.293.707l8.133 8.132c.39.39 1.023.39 1.414 0l8.13-8.132z"/></g><g><path d="M-333.264-233.266c6.758-6.758 6.758-17.754 0-24.513-6.76-6.757-17.756-6.757-24.514 0s-6.758 17.756 0 24.514c6.758 6.76 17.755 6.76 24.514 0zm-23.1-23.098c5.98-5.98 15.708-5.98 21.687 0s5.98 15.706-.002 21.684c-5.978 5.98-15.704 5.98-21.683 0s-5.98-15.705 0-21.684z"/><path d="M-337.992-240.55c.553 0 1-.448 1-1 0-.554-.447-1-1-1h-10.5v-10.5c0-.554-.447-1-1-1-.277 0-.527.11-.707.292-.18.18-.292.43-.292.707v11.5c0 .55.447 1 1 1h11.5z"/></g><g><path d="M-397.633-257.78c-6.758 6.76-6.758 17.756 0 24.514 6.758 6.76 17.754 6.76 24.514 0 6.76-6.758 6.76-17.755 0-24.513-6.76-6.757-17.755-6.757-24.513 0zm23.1 23.1c-5.98 5.98-15.707 5.98-21.686 0s-5.978-15.706 0-21.685c5.98-5.98 15.706-5.98 21.685 0s5.98 15.707.002 21.685z"/><path d="M-392.906-250.493c-.55 0-1 .447-1 1 0 .552.45 1 1 1h10.502v10.5c0 .553.447 1 .998 1 .277 0 .527-.112.71-.293.18-.18.29-.43.29-.707v-11.5c0-.553-.447-1-1-1h-11.5z"/></g><g><path d="M-424.42-210.833c-9.558 0-17.334 7.775-17.334 17.333s7.776 17.333 17.334 17.333c9.557 0 17.332-7.775 17.332-17.333s-7.775-17.333-17.332-17.333zm0 32.666c-8.455 0-15.334-6.878-15.334-15.333s6.88-15.333 15.334-15.333 15.332 6.878 15.332 15.333-6.878 15.333-15.332 15.333z"/><path d="M-420.014-198.907h-8.814c-.552 0-1 .448-1 1v8.814c0 .552.448 1 1 1h8.814c.552 0 1-.448 1-1v-8.814c0-.552-.447-1-1-1zm-1 8.814h-6.814v-6.814h6.814v6.814z"/></g><g><path d="M-306.258-210.833c-9.558 0-17.334 7.775-17.334 17.333s7.776 17.333 17.334 17.333 17.333-7.775 17.333-17.333-7.775-17.333-17.333-17.333zm0 32.666c-8.455 0-15.334-6.878-15.334-15.333s6.88-15.333 15.334-15.333c8.455 0 15.333 6.878 15.333 15.333s-6.878 15.333-15.333 15.333z"/><path d="M-301.835-202.595c-.39-.39-1.023-.39-1.414 0s-.39 1.023 0 1.414l2.17 2.17h-9.36c-2.433 0-4.412 1.978-4.412 4.41 0 .552.448 1 1 1s1-.448 1-1c0-.644.25-1.25.706-1.705.456-.456 1.06-.706 1.705-.706h9.36l-2.17 2.168c-.39.39-.39 1.023 0 1.414.196.195.452.293.708.293s.512-.098.707-.293l3.877-3.877c.39-.39.39-1.023 0-1.414l-3.877-3.875z"/><path d="M-298.665-193.4c-.552 0-1 .448-1 1 0 .644-.25 1.25-.707 1.705s-1.06.706-1.704.706h-9.36l2.168-2.168c.39-.39.39-1.023 0-1.414s-1.023-.39-1.414 0l-3.877 3.877c-.39.39-.39 1.023 0 1.414l3.878 3.876c.195.195.45.293.707.293s.512-.1.707-.294c.39-.39.39-1.023 0-1.414l-2.17-2.17h9.362c2.432 0 4.41-1.98 4.41-4.41 0-.554-.447-1.002-1-1.002z"/></g><g><path d="M-583.52-157.456c-9.557 0-17.333 7.775-17.333 17.333s7.776 17.333 17.334 17.333c9.56 0 17.334-7.775 17.334-17.333s-7.775-17.333-17.333-17.333zm0 32.666c-8.454 0-15.333-6.878-15.333-15.333s6.88-15.333 15.334-15.333c8.456 0 15.334 6.878 15.334 15.333s-6.878 15.333-15.333 15.333z"/><path d="M-575.8-138.614c-.39-.39-1.022-.39-1.413 0-.39.39-.39 1.023 0 1.414l1.304 1.304h-3.036l-3.496-3.496 4.213-4.213h2.32l-1.304 1.304c-.39.39-.39 1.023 0 1.413.195.195.45.293.707.293s.512-.098.707-.293l3.01-3.01c.39-.392.39-1.024 0-1.415l-3.01-3.01c-.39-.392-1.023-.392-1.414 0-.39.39-.39 1.022 0 1.413l1.303 1.305h-2.733c-.13 0-.26.026-.382.077-.122.05-.233.124-.325.216l-4.505 4.506-4.506-4.506c-.093-.092-.204-.166-.326-.216-.123-.05-.252-.077-.382-.077h-4.272c-.552 0-1 .448-1 1s.448 1 1 1h3.858l4.213 4.213-3.495 3.496h-4.576c-.553 0-1 .448-1 1s.447 1 1 1h4.99c.13 0 .26-.026.38-.077.123-.05.234-.124.326-.216l3.788-3.787 3.788 3.788c.092.093.203.167.325.217.123.05.252.077.382.077h3.45l-1.304 1.304c-.39.39-.39 1.024 0 1.414.195.195.45.293.707.293s.512-.098.707-.293l3.01-3.01c.39-.392.39-1.024 0-1.415l-3.01-3.01z"/></g></svg>