<svg xmlns="http://www.w3.org/2000/svg" xmlns:xlink="http://www.w3.org/1999/xlink" version="1.1" id="Layer_1" x="0px" y="0px" width="100px" height="100px" viewBox="0 0 100 100" enable-background="new 0 0 100 100" xml:space="preserve" class="close-it">
<g>
	<path fill="#000000" d="M-343.549-210.833c-9.558,0-17.334,7.775-17.334,17.333s7.776,17.333,17.334,17.333   s17.334-7.775,17.334-17.333S-333.991-210.833-343.549-210.833z M-343.549-178.167c-8.455,0-15.334-6.878-15.334-15.333   s6.879-15.333,15.334-15.333s15.334,6.878,15.334,15.333S-335.094-178.167-343.549-178.167z"/>
	<path fill="#000000" d="M-345.357-202.339c-0.287-0.287-0.717-0.373-1.09-0.217c-0.374,0.155-0.617,0.52-0.617,0.924v16.264   c0,0.404,0.244,0.769,0.617,0.924c0.124,0.051,0.254,0.076,0.383,0.076c0.26,0,0.516-0.102,0.707-0.293l8.131-8.132   c0.391-0.391,0.391-1.023,0-1.414L-345.357-202.339z M-345.064-187.783v-11.435l5.717,5.717L-345.064-187.783z"/>
</g>
<g>
	<path fill="#000000" d="M-471.277-210.833c-9.558,0-17.334,7.775-17.334,17.333s7.776,17.333,17.334,17.333   s17.334-7.775,17.334-17.333S-461.719-210.833-471.277-210.833z M-471.277-178.167c-8.455,0-15.334-6.878-15.334-15.333   s6.879-15.333,15.334-15.333s15.334,6.878,15.334,15.333S-462.822-178.167-471.277-178.167z"/>
	<path fill="#000000" d="M-469.213-200.571c-0.286-0.287-0.716-0.373-1.09-0.217c-0.374,0.155-0.617,0.52-0.617,0.924v5.669   c-0.003-0.003-0.004-0.008-0.008-0.012l-6.363-6.364c-0.286-0.287-0.716-0.373-1.09-0.217c-0.374,0.155-0.617,0.52-0.617,0.924   v12.729c0,0.404,0.244,0.769,0.617,0.924c0.124,0.051,0.254,0.076,0.383,0.076c0.26,0,0.516-0.102,0.707-0.293l6.363-6.364   c0.003-0.003,0.004-0.008,0.008-0.012v5.669c0,0.404,0.244,0.769,0.617,0.924c0.124,0.051,0.254,0.076,0.383,0.076   c0.26,0,0.516-0.102,0.707-0.293l6.363-6.364c0.391-0.391,0.391-1.023,0-1.414L-469.213-200.571z M-476.998-189.55v-7.899   l3.949,3.95L-476.998-189.55z M-468.92-189.55v-7.899l3.949,3.95L-468.92-189.55z"/>
</g>
<g>
	<path fill="#000000" d="M-382.143-210.833c-9.558,0-17.334,7.775-17.334,17.333s7.776,17.333,17.334,17.333   c9.557,0,17.332-7.775,17.332-17.333S-372.585-210.833-382.143-210.833z M-382.143-178.167c-8.455,0-15.334-6.878-15.334-15.333   s6.879-15.333,15.334-15.333c8.454,0,15.332,6.878,15.332,15.333S-373.688-178.167-382.143-178.167z"/>
	<path fill="#000000" d="M-385.211-200.132c-0.552,0-1,0.448-1,1v11.264c0,0.552,0.448,1,1,1s1-0.448,1-1v-11.264   C-384.211-199.684-384.659-200.132-385.211-200.132z"/>
	<path fill="#000000" d="M-379.076-200.132c-0.552,0-1,0.448-1,1v11.264c0,0.552,0.448,1,1,1s1-0.448,1-1v-11.264   C-378.076-199.684-378.524-200.132-379.076-200.132z"/>
</g>
<g>
	<path fill="#000000" d="M-514.662-210.833c-9.558,0-17.334,7.775-17.334,17.333s7.776,17.333,17.334,17.333   s17.334-7.775,17.334-17.333S-505.104-210.833-514.662-210.833z M-514.662-178.167c-8.455,0-15.334-6.878-15.334-15.333   s6.879-15.333,15.334-15.333s15.334,6.878,15.334,15.333S-506.207-178.167-514.662-178.167z"/>
	<path fill="#000000" d="M-509.03-194.5h-4.632v-4.632c0-0.552-0.448-1-1-1s-1,0.448-1,1v4.632h-4.632c-0.552,0-1,0.448-1,1   s0.448,1,1,1h4.632v4.632c0,0.552,0.448,1,1,1s1-0.448,1-1v-4.632h4.632c0.552,0,1-0.448,1-1S-508.478-194.5-509.03-194.5z"/>
</g>
<g>
	<path fill="#000000" d="M-562.133-210.833c-9.558,0-17.334,7.775-17.334,17.333s7.776,17.333,17.334,17.333   c9.558,0,17.333-7.775,17.333-17.333S-552.575-210.833-562.133-210.833z M-562.133-178.167c-8.455,0-15.334-6.878-15.334-15.333   s6.879-15.333,15.334-15.333c8.455,0,15.333,6.878,15.333,15.333S-553.678-178.167-562.133-178.167z"/>
	<path fill="#000000" d="M-556.501-194.5h-11.264c-0.552,0-1,0.448-1,1s0.448,1,1,1h11.264c0.552,0,1-0.448,1-1   S-555.949-194.5-556.501-194.5z"/>
</g>
<path fill="#000000" d="M-595.24-205.71c-0.013-0.014-0.017-0.033-0.031-0.046s-0.032-0.018-0.047-0.031  c-3.135-3.115-7.451-5.045-12.209-5.045c-9.558,0-17.334,7.775-17.334,17.333c0,4.762,1.932,9.08,5.051,12.216  c0.011,0.012,0.015,0.028,0.027,0.04s0.028,0.016,0.04,0.027c3.136,3.119,7.454,5.05,12.216,5.05  c9.558,0,17.333-7.775,17.333-17.333C-590.194-198.259-592.124-202.575-595.24-205.71z M-607.527-208.833  c3.868,0,7.396,1.451,10.096,3.822l-21.607,21.607c-2.372-2.7-3.823-6.228-3.823-10.096  C-622.861-201.955-615.982-208.833-607.527-208.833z M-607.527-178.167c-3.868,0-7.396-1.451-10.097-3.823l21.607-21.607  c2.372,2.701,3.823,6.229,3.823,10.097C-592.194-185.045-599.072-178.167-607.527-178.167z"/>
<g>
	<g>
		<path fill="#000000" d="M-504.944-262.855c-9.558,0-17.333,7.776-17.333,17.333s7.775,17.334,17.333,17.334    s17.333-7.776,17.333-17.334S-495.387-262.855-504.944-262.855z M-504.944-230.188c-8.455,0-15.333-6.879-15.333-15.334    s6.878-15.333,15.333-15.333s15.333,6.878,15.333,15.333S-496.489-230.188-504.944-230.188z"/>
	</g>
	<g>
		<path fill="#000000" d="M-506.753-254.36c-0.391-0.391-1.023-0.391-1.414,0s-0.391,1.023,0,1.414l7.425,7.425l-7.425,7.425    c-0.391,0.391-0.391,1.023,0,1.414c0.195,0.195,0.451,0.293,0.707,0.293s0.512-0.098,0.707-0.293l8.132-8.132    c0.391-0.391,0.391-1.023,0-1.414L-506.753-254.36z"/>
	</g>
</g>
<g>
	<g>
		<path fill="#000000" d="M49.953,100c27.566,0,49.994-22.426,49.994-49.996c0-27.568-22.428-49.997-49.994-49.997    c-27.567,0-49.995,22.429-49.995,49.997C-0.042,77.574,22.386,100,49.953,100z M49.953,5.776c24.388,0,44.227,19.84,44.227,44.229    c0,24.389-19.839,44.228-44.227,44.228c-24.387,0-44.227-19.839-44.227-44.228C5.727,25.616,25.566,5.776,49.953,5.776z"/>
	</g>
	<g>
		<path fill="#000000" d="M55.169,75.502c1.126,1.125,2.954,1.125,4.078,0c1.128-1.128,1.128-2.953,0-4.081L37.833,50.004    l21.415-21.416c1.128-1.126,1.128-2.951,0-4.079c-0.562-0.563-1.3-0.845-2.039-0.845c-0.735,0-1.476,0.282-2.039,0.845    L31.715,47.964c-1.127,1.126-1.127,2.953,0,4.079L55.169,75.502z"/>
	</g>
</g>
<g>
	<g>
		<path fill="#000000" d="M-482.422-245.521c0,9.558,7.775,17.334,17.334,17.334c9.557,0,17.333-7.776,17.333-17.334    s-7.776-17.333-17.333-17.333C-474.646-262.855-482.422-255.079-482.422-245.521z M-449.755-245.521    c0,8.455-6.878,15.334-15.333,15.334s-15.334-6.879-15.334-15.334s6.879-15.333,15.334-15.333S-449.755-253.977-449.755-245.521z"/>
	</g>
	<g>
		<path fill="#000000" d="M-473.928-243.713c-0.391,0.391-0.391,1.023,0,1.414s1.023,0.391,1.414,0l7.426-7.425l7.424,7.425    c0.391,0.391,1.023,0.391,1.414,0c0.195-0.195,0.293-0.451,0.293-0.707s-0.098-0.512-0.293-0.707l-8.131-8.132    c-0.391-0.391-1.023-0.391-1.414,0L-473.928-243.713z"/>
	</g>
</g>
<g>
	<g>
		<path fill="#000000" d="M-407.898-245.521c0-9.558-7.777-17.333-17.334-17.333c-9.559,0-17.334,7.776-17.334,17.333    s7.775,17.334,17.334,17.334C-415.676-228.188-407.898-235.964-407.898-245.521z M-440.566-245.521    c0-8.455,6.879-15.333,15.334-15.333s15.334,6.878,15.334,15.333s-6.879,15.334-15.334,15.334S-440.566-237.066-440.566-245.521z"/>
	</g>
	<g>
		<path fill="#000000" d="M-416.395-247.33c0.391-0.391,0.391-1.023,0-1.414s-1.023-0.391-1.414,0l-7.424,7.425l-7.426-7.425    c-0.391-0.391-1.023-0.391-1.414,0c-0.195,0.195-0.293,0.451-0.293,0.707s0.098,0.512,0.293,0.707l8.133,8.132    c0.391,0.391,1.023,0.391,1.414,0L-416.395-247.33z"/>
	</g>
</g>
<g>
	<g>
		<path fill="#000000" d="M-333.264-233.266c6.758-6.758,6.758-17.754,0-24.513c-6.76-6.758-17.756-6.758-24.514,0    s-6.758,17.755,0,24.513C-351.02-226.506-340.023-226.506-333.264-233.266z M-356.363-256.364    c5.979-5.979,15.707-5.979,21.686-0.001s5.979,15.707-0.002,21.685c-5.979,5.979-15.705,5.979-21.684,0    S-362.342-250.385-356.363-256.364z"/>
	</g>
	<g>
		<path fill="#000000" d="M-337.992-240.551c0.553,0,1-0.447,1-1c0-0.553-0.447-1-1-1h-10.5v-10.5c0-0.553-0.447-1-1-1    c-0.277,0-0.527,0.111-0.707,0.293c-0.182,0.181-0.293,0.431-0.293,0.707v11.5c0,0.552,0.447,1,1,1H-337.992z"/>
	</g>
</g>
<g>
	<g>
		<path fill="#000000" d="M-397.633-257.779c-6.758,6.758-6.758,17.755,0,24.513c6.758,6.759,17.754,6.759,24.514,0    c6.758-6.758,6.758-17.755-0.002-24.513C-379.879-264.537-390.875-264.537-397.633-257.779z M-374.533-234.68    c-5.98,5.979-15.707,5.979-21.686,0s-5.979-15.706,0-21.685c5.979-5.979,15.705-5.979,21.684,0S-368.555-240.658-374.533-234.68z"/>
	</g>
	<g>
		<path fill="#000000" d="M-392.906-250.493c-0.551,0-1,0.447-1,1c0,0.552,0.449,1,1,1h10.502v10.5c0,0.553,0.447,1,0.998,1    c0.277,0,0.527-0.112,0.709-0.293c0.18-0.181,0.291-0.431,0.291-0.707v-11.5c0-0.553-0.447-1-1-1H-392.906z"/>
	</g>
</g>
<g>
	<path fill="#000000" d="M-424.42-210.833c-9.558,0-17.334,7.775-17.334,17.333s7.776,17.333,17.334,17.333   c9.557,0,17.332-7.775,17.332-17.333S-414.863-210.833-424.42-210.833z M-424.42-178.167c-8.455,0-15.334-6.878-15.334-15.333   s6.879-15.333,15.334-15.333c8.454,0,15.332,6.878,15.332,15.333S-415.966-178.167-424.42-178.167z"/>
	<path fill="#000000" d="M-420.014-198.907h-8.814c-0.552,0-1,0.448-1,1v8.814c0,0.552,0.448,1,1,1h8.814c0.552,0,1-0.448,1-1   v-8.814C-419.014-198.459-419.461-198.907-420.014-198.907z M-421.014-190.093h-6.814v-6.814h6.814V-190.093z"/>
</g>
<g>
	<path fill="#000000" d="M-306.258-210.833c-9.558,0-17.334,7.775-17.334,17.333s7.776,17.333,17.334,17.333   c9.558,0,17.333-7.775,17.333-17.333S-296.7-210.833-306.258-210.833z M-306.258-178.167c-8.455,0-15.334-6.878-15.334-15.333   s6.879-15.333,15.334-15.333c8.455,0,15.333,6.878,15.333,15.333S-297.803-178.167-306.258-178.167z"/>
	<path fill="#000000" d="M-301.835-202.595c-0.391-0.391-1.023-0.391-1.414,0s-0.391,1.023,0,1.414l2.17,2.17l-9.362,0   c-2.432,0-4.411,1.979-4.411,4.411c0,0.552,0.448,1,1,1s1-0.448,1-1c0-0.644,0.251-1.25,0.706-1.705   c0.456-0.456,1.061-0.706,1.705-0.706h0h9.361l-2.169,2.169c-0.391,0.391-0.391,1.023,0,1.414c0.195,0.195,0.451,0.293,0.707,0.293   s0.512-0.098,0.707-0.293l3.877-3.877c0.391-0.391,0.391-1.023,0-1.414L-301.835-202.595z"/>
	<path fill="#000000" d="M-298.665-193.4c-0.552,0-1,0.448-1,1c0,0.644-0.251,1.249-0.707,1.705s-1.061,0.706-1.704,0.706h0h-9.361   l2.169-2.169c0.391-0.391,0.391-1.023,0-1.414s-1.023-0.391-1.414,0l-3.877,3.877c-0.391,0.391-0.391,1.023,0,1.414l3.877,3.877   c0.195,0.195,0.451,0.293,0.707,0.293s0.512-0.098,0.707-0.293c0.391-0.391,0.391-1.023,0-1.414l-2.17-2.17l9.362,0   c2.432,0,4.411-1.979,4.411-4.411C-297.665-192.952-298.113-193.4-298.665-193.4z"/>
</g>
<g>
	<path fill="#000000" d="M-583.519-157.456c-9.558,0-17.334,7.775-17.334,17.333s7.776,17.333,17.334,17.333   c9.558,0,17.333-7.775,17.333-17.333S-573.961-157.456-583.519-157.456z M-583.519-124.79c-8.455,0-15.334-6.878-15.334-15.333   s6.879-15.333,15.334-15.333c8.455,0,15.333,6.878,15.333,15.333S-575.064-124.79-583.519-124.79z"/>
	<path fill="#000000" d="M-575.799-138.614c-0.391-0.391-1.023-0.391-1.414,0c-0.391,0.39-0.391,1.023,0,1.414l1.304,1.304h-3.037   l-3.496-3.496l4.213-4.213h2.319l-1.304,1.304c-0.391,0.391-0.391,1.024,0,1.414c0.195,0.195,0.451,0.293,0.707,0.293   s0.512-0.098,0.707-0.293l3.01-3.011c0.391-0.391,0.391-1.023,0-1.414l-3.01-3.011c-0.391-0.391-1.023-0.391-1.414,0   c-0.391,0.39-0.391,1.023,0,1.414l1.303,1.304h-2.732c-0.13,0-0.26,0.026-0.382,0.077c-0.122,0.051-0.233,0.124-0.325,0.216   l-4.505,4.506l-4.506-4.506c-0.092-0.092-0.203-0.166-0.325-0.216c-0.123-0.051-0.252-0.077-0.382-0.077h-4.272   c-0.552,0-1,0.448-1,1s0.448,1,1,1h3.858l4.213,4.213l-3.496,3.496h-4.576c-0.552,0-1,0.448-1,1s0.448,1,1,1h4.99   c0.13,0,0.26-0.026,0.382-0.077c0.122-0.051,0.233-0.124,0.325-0.216l3.788-3.788l3.788,3.788c0.092,0.092,0.203,0.166,0.325,0.216   c0.123,0.051,0.252,0.077,0.382,0.077h3.45l-1.303,1.304c-0.391,0.391-0.391,1.024,0,1.414c0.195,0.195,0.451,0.293,0.707,0.293   s0.512-0.098,0.707-0.293l3.01-3.011c0.391-0.391,0.391-1.023,0-1.414L-575.799-138.614z"/>
</g>
</svg>
